<svg version="1.0" xmlns="http://www.w3.org/2000/svg" width="346.667" height="346.667" viewBox="0 0 260 260"><path d="M52.9 66.2c0 1.3-.1 4.8-.2 7.8l-.2 5.5-6.1.7c-21 2.3-35.8 13.7-42.6 32.7-4 11-3.1 29 1.9 40 7.3 16 24.9 26.8 44.1 27.1 3.3 0 3.3.1 3.2 4.2-.1 2.4-.1 5.8-.1 7.5l.1 3.3h24v-15h3.8c5.7 0 18.9-3.6 24-6.6 14.6-8.6 23.2-23.7 23.3-41.3.1-22.4-8.6-37.8-26.7-46.9-3.2-1.7-7.7-3.3-9.9-3.7-2.2-.4-4.7-.8-5.5-1-.8-.2-3.2-.4-5.2-.4L77 80V64H65c-11.8 0-12 0-12.1 2.2zm-.2 63.5l-.2 28.8-2.3.3c-1.2.2-4.7-.4-7.7-1.3-11.4-3.3-17.6-12.9-17.6-26.9 0-17.8 8.9-28.5 24.2-29.5l3.7-.2-.1 28.8zm37.5-26.3c8.9 3.8 14.7 15.2 14.3 28.1-.3 9.4-2.3 14.3-8 20.1-5 5-10.4 7.4-16.9 7.4H77v-58.3l4.9.7c2.8.4 6.5 1.3 8.3 2zm53.7-34.2c-.4 1.2-.3 119.2.2 119.9.3.5 20.2 1 44.9 1.1l44.5.3v28l11.8.3 11.7.3.1-6.3c.1-7 .7-22.3 1.2-34.1l.4-7.7H242V69h-25v102h-23.9c-18.2 0-24-.3-24.3-1.3-.2-.6-.3-23.6-.3-51l.1-49.7h-12.3c-6.8 0-12.3.1-12.4.2z"/></svg>